<svg version="1.1" width="45" height="34" xmlns="http://www.w3.org/2000/svg" xmlns:xlink="http://www.w3.org/1999/xlink">
  <!-- Exported by Scratch - http://scratch.mit.edu/ -->
  <g id="ID0.7746221525594592">
    <path id="ID0.016856987960636616" fill="#E3D930" d="M 76.482 42.721 C 86.558 42.721 95.688 46.327 102.299 52.153 C 108.911 57.979 113.003 66.024 113.003 74.903 C 113.003 83.782 108.911 91.827 102.299 97.653 C 95.688 103.479 86.558 107.085 76.482 107.085 C 66.406 107.085 57.276 103.479 50.665 97.653 C 44.053 91.827 39.961 83.782 39.961 74.903 C 39.961 66.024 44.053 57.979 50.665 52.153 C 57.276 46.327 66.406 42.721 76.482 42.721 Z " transform="matrix(0.3401230275630951, 0, 0, 0.3401230275630951, -1.9, -7.25)"/>
    <g id="ID0.3498215703293681">
      <path id="ID0.2558167274110019" fill="#FBB040" d="M 134.421 84.762 C 135.876 84.670 136.872 84.486 136.872 84.486 C 136.872 84.486 135.712 84.460 134.421 84.762 Z " transform="matrix(0.3401230275630951, 0, 0, 0.3401230275630951, -1.9, -7.25)"/>
      <path id="ID0.8629972231574357" fill="#FBB040" d="M 131.087 89.187 C 130.448 86.309 132.568 85.197 134.421 84.762 C 130.305 85.020 122.432 84.500 122.432 76.720 C 122.432 67.322 136.513 66.224 136.513 66.224 C 136.513 66.224 125.711 65.085 123.721 60.383 C 121.732 55.682 134.341 49.770 134.341 49.770 C 134.341 49.770 127.472 53.208 121.505 49.049 C 115.537 44.891 125.483 34.945 125.483 34.945 C 125.483 34.945 112.105 40.731 109.211 40.368 C 106.317 40.007 107.765 36.032 107.765 36.032 C 107.765 36.032 104.151 41.997 97.098 40.550 C 90.046 39.102 92.940 29.339 92.940 29.339 C 92.940 29.339 90.410 38.379 81.370 37.656 C 72.330 36.934 74.317 26.445 74.317 26.445 C 74.317 26.445 71.787 35.666 66.183 35.666 C 60.578 35.666 58.951 23.373 58.951 23.373 C 58.951 23.373 59.854 35.487 52.984 40.548 C 46.112 45.610 36.531 42.717 36.531 42.717 C 36.531 42.717 41.955 46.697 37.977 50.131 C 33.998 53.565 25.682 50.312 25.682 50.312 C 25.682 50.312 33.096 53.385 31.470 59.895 C 29.844 66.404 6.879 61.522 6.879 61.522 C 6.879 61.522 26.046 66.584 26.406 69.839 C 26.765 73.093 19.355 75.443 19.355 75.443 C 19.355 75.443 26.044 75.082 27.309 78.697 C 28.573 82.313 22.427 89.185 22.427 89.185 C 22.427 89.185 29.118 87.373 31.469 91.170 C 33.820 94.969 29.841 100.391 29.841 100.391 C 29.841 100.391 35.627 96.053 39.242 98.220 C 42.857 100.391 39.422 106.175 39.422 106.175 C 39.422 106.175 45.569 101.838 48.464 104.007 C 51.358 106.175 48.464 112.504 48.464 112.504 C 48.464 112.504 53.886 107.079 56.781 108.165 C 59.675 109.251 58.047 117.023 58.047 117.023 C 58.047 117.023 62.205 109.429 68.171 110.154 C 74.136 110.876 73.233 118.472 73.233 118.472 C 73.233 118.472 75.944 111.600 83.719 111.419 C 91.493 111.237 98.546 121.002 98.546 121.002 C 98.546 121.002 99.449 111.961 103.973 109.973 C 108.494 107.983 116.625 116.482 116.625 116.482 C 116.625 116.482 113.553 107.263 117.892 102.741 C 122.232 98.220 129.462 107.442 129.462 107.442 C 129.462 107.442 126.210 101.656 128.018 98.042 C 129.825 94.425 133.804 95.329 133.804 95.329 C 133.804 95.329 132.173 94.065 131.087 89.187 Z M 76.482 107.085 C 56.311 107.085 39.961 92.676 39.961 74.902 C 39.961 57.129 56.313 42.720 76.482 42.720 C 96.649 42.720 113.003 57.129 113.003 74.902 C 113.004 92.676 96.652 107.085 76.482 107.085 Z " transform="matrix(0.3401230275630951, 0, 0, 0.3401230275630951, -1.9, -7.25)"/>
    </g>
    <path id="ID0.3121544881723821" fill="none" stroke="#9B8579" stroke-width="0.5" d="M 76.482 42.721 C 86.558 42.721 95.688 46.327 102.299 52.153 C 108.911 57.979 113.003 66.024 113.003 74.903 C 113.003 83.782 108.911 91.827 102.299 97.653 C 95.688 103.479 86.558 107.085 76.482 107.085 C 66.406 107.085 57.276 103.479 50.665 97.653 C 44.053 91.827 39.961 83.782 39.961 74.903 C 39.961 66.024 44.053 57.979 50.665 52.153 C 57.276 46.327 66.406 42.721 76.482 42.721 Z " transform="matrix(0.3401230275630951, 0, 0, 0.3401230275630951, -1.9, -7.25)"/>
    <path id="ID0.6506857210770249" fill="#9B8579" d="M 89.340 57.838 C 90.013 57.838 90.623 58.794 91.064 60.339 C 91.506 61.883 91.779 64.016 91.779 66.370 C 91.779 68.724 91.506 70.857 91.064 72.401 C 90.623 73.946 90.013 74.902 89.340 74.902 C 88.667 74.902 88.057 73.946 87.616 72.401 C 87.174 70.857 86.901 68.724 86.901 66.370 C 86.901 64.016 87.174 61.883 87.616 60.339 C 88.057 58.794 88.667 57.838 89.340 57.838 Z " transform="matrix(0.3401230275630951, 0, 0, 0.3401230275630951, -1.9, -7.25)"/>
    <path id="ID0.2797713386826217" fill="#9B8579" d="M 63.827 57.838 C 64.500 57.838 65.110 58.794 65.552 60.339 C 65.994 61.883 66.267 64.016 66.267 66.370 C 66.267 68.724 65.994 70.857 65.552 72.401 C 65.110 73.946 64.500 74.902 63.827 74.902 C 63.154 74.902 62.544 73.946 62.102 72.401 C 61.660 70.857 61.387 68.724 61.387 66.370 C 61.387 64.016 61.660 61.883 62.102 60.339 C 62.544 58.794 63.154 57.838 63.827 57.838 Z " transform="matrix(0.3401230275630951, 0, 0, 0.3401230275630951, -1.9, -7.25)"/>
    <path id="ID0.5591651201248169" fill="#FFFF00" stroke="#9B8579" stroke-width="0.5" d="M 36.527 42.718 C 36.527 42.718 46.108 45.612 52.979 40.549 C 59.850 35.486 58.947 23.374 58.947 23.374 C 58.947 23.374 60.574 35.667 66.179 35.667 C 71.783 35.667 74.315 26.446 74.315 26.446 C 74.315 26.446 72.326 36.934 81.367 37.657 C 90.407 38.380 92.938 29.340 92.938 29.340 C 92.938 29.340 90.044 39.103 97.096 40.551 C 104.148 41.998 107.762 36.033 107.762 36.033 C 107.762 36.033 106.316 40.010 109.209 40.369 C 112.103 40.732 125.481 34.946 125.481 34.946 C 125.481 34.946 115.536 44.891 121.502 49.050 C 127.468 53.209 134.339 49.771 134.339 49.771 C 134.339 49.771 121.728 55.685 123.720 60.384 C 125.710 65.084 136.509 66.225 136.509 66.225 C 136.509 66.225 122.429 67.325 122.429 76.721 C 122.429 87.254 136.870 84.487 136.870 84.487 C 136.870 84.487 129.998 84.304 131.082 89.188 C 132.168 94.067 133.795 95.334 133.795 95.334 C 133.795 95.334 129.815 94.432 128.008 98.046 C 126.199 101.662 129.453 107.447 129.453 107.447 C 129.453 107.447 122.223 98.224 117.883 102.746 C 113.543 107.267 116.618 116.486 116.618 116.486 C 116.618 116.486 108.484 107.989 103.961 109.978 C 99.440 111.967 98.537 121.005 98.537 121.005 C 98.537 121.005 91.484 111.244 83.710 111.424 C 75.938 111.603 73.224 118.476 73.224 118.476 C 73.224 118.476 74.126 110.881 68.162 110.160 C 62.197 109.434 58.038 117.030 58.038 117.030 C 58.038 117.030 59.665 109.255 56.772 108.169 C 53.877 107.083 48.454 112.510 48.454 112.510 C 48.454 112.510 51.349 106.179 48.454 104.011 C 45.560 101.841 39.412 106.179 39.412 106.179 C 39.412 106.179 42.848 100.394 39.233 98.225 C 35.618 96.056 29.831 100.396 29.831 100.396 C 29.831 100.396 33.810 94.973 31.459 91.176 C 29.107 87.380 22.418 89.188 22.418 89.188 C 22.418 89.188 28.564 82.318 27.299 78.702 C 26.035 75.086 19.346 75.447 19.346 75.447 C 19.346 75.447 26.756 73.095 26.396 69.843 C 26.037 66.590 6.871 61.527 6.871 61.527 C 6.871 61.527 29.834 66.408 31.462 59.900 C 33.089 53.390 25.674 50.317 25.674 50.317 C 25.674 50.317 33.992 53.570 37.969 50.136 C 41.947 46.700 36.527 42.718 36.527 42.718 Z " transform="matrix(0.3401230275630951, 0, 0, 0.3401230275630951, -1.9, -7.25)"/>
    <path id="ID0.3348794491030276" fill="none" stroke="#FFFF00" stroke-width="2" d="M 59.828 80.490 C 59.828 80.490 61.066 86.495 76.265 86.495 C 91.460 86.495 93.228 81.902 93.228 81.902 " transform="matrix(0.3401230275630951, 0, 0, 0.3401230275630951, -1.9, -7.25)"/>
  </g>
  <path id="ID0.43833496142178774" fill="none" stroke="#FF0000" stroke-width="2" stroke-linecap="round" d="M 242.750 184.650 L 243.050 184.950 " transform="matrix(1, 0, 0, 1, -221, -167)"/>
  <path id="ID0.25571418460458517" fill="none" stroke="#FF0000" stroke-width="2" stroke-linecap="round" d="M 243 179.750 C 241.868 181.069 241.200 181.050 241.200 181.050 C 241.200 181.050 241.404 182.273 241.400 182.250 Z " transform="matrix(1, 0, 0, 1, -221, -167)"/>
  <path id="ID0.09032267006114125" fill="none" stroke="#FF0000" stroke-width="2" stroke-linecap="round" d="M 241 182.700 C 240.134 182.484 239.274 182.232 238.400 182.050 C 237.757 181.916 236.450 181.750 236.450 181.750 " transform="matrix(1, 0, 0, 1, -221, -167)"/>
  <path id="ID0.1563970409333706" fill="none" stroke="#FF0000" stroke-width="2" stroke-linecap="round" d="M 242 185.850 C 242 185.850 241.236 187.140 240.700 187.650 C 240.185 188.140 239.448 188.347 238.900 188.800 C 238.669 188.991 238.400 189.550 238.400 189.550 " transform="matrix(1, 0, 0, 1, -221, -167)"/>
  <path id="ID0.30392271000891924" fill="none" stroke="#FF0000" stroke-width="2" stroke-linecap="round" d="M 249.050 186.800 C 249.050 186.800 250.595 185.942 251.450 185.850 C 252.210 185.768 252.950 186.156 253.700 186.300 C 253.888 186.336 254.050 186.350 254.050 186.350 " transform="matrix(1, 0, 0, 1, -221, -167)"/>
  <path id="ID0.9541650554165244" fill="none" stroke="#FF0000" stroke-width="2" stroke-linecap="round" d="M 249.400 182.150 C 249.983 181.601 250.579 181.061 251.150 180.500 C 251.561 180.095 252.350 179.250 252.350 179.250 " transform="matrix(1, 0, 0, 1, -221, -167)"/>
  <path id="ID0.033448589500039816" fill="none" stroke="#FF0000" stroke-width="2" stroke-linecap="round" d="M 247.950 179.350 C 247.950 179.350 247.900 176.500 247.900 176.500 Z " transform="matrix(1, 0, 0, 1, -221, -167)"/>
  <path id="ID0.9564116657711565" fill="none" stroke="#FF0000" stroke-width="2" stroke-linecap="round" d="M 243.250 178.750 C 243.250 178.750 244.700 179.550 245.550 179.800 C 246.150 179.950 246.950 179.600 247.550 179.950 C 248.150 180.250 248.750 180.900 248.900 181.650 C 249 182.350 248.600 183.100 248.200 183.700 C 247.800 184.250 246.500 184.350 246.550 184.950 C 246.550 185.550 248.050 185.450 248.350 186.150 C 248.550 186.750 248.300 187.800 247.700 188.050 C 246.400 188.500 244.800 188.650 243.650 188 C 242.300 187.200 241.200 185.700 241 184.200 C 240.850 183.500 242.350 183.150 242.950 183.550 C 243.500 183.900 242.900 185.050 243.350 185.650 C 243.750 186.200 245.100 186.700 245.200 186.650 C 245.250 186.550 244.300 185.500 243.750 185.050 C 243.500 184.850 242.850 184.750 242.850 184.750 C 242.950 179.350 241.850 180.650 241.550 181.450 C 241.250 182.050 240.900 183.250 241.250 183.500 C 241.550 183.700 242.450 182.850 242.900 182.350 C 243.350 181.800 243.850 180.350 243.900 180.450 C 243.900 180.500 242.600 182.100 242.950 182.950 C 243.150 183.550 244.600 183.600 245 183.350 C 245.250 183.100 244.050 182.400 244.250 181.950 C 244.500 181.250 245.300 180.650 246.050 180.750 C 246.700 180.800 247.500 181.600 247.400 182.250 C 247.250 182.900 245.850 182.700 245.500 183.350 C 245.150 183.900 245.400 184.700 245.650 185.350 C 245.900 185.950 246.450 186.450 246.950 186.950 C 247.050 187.050 247 186.650 247 186.650 C 246.700 188.700 247.400 189.150 247.900 189.800 C 248.250 190.250 248.700 191.500 248.700 191.500 C 243.250 179.650 242.027 178.701 241.400 178.250 C 240.778 177.802 239.500 176.950 239.500 176.950 " transform="matrix(1, 0, 0, 1, -221, -167)"/>
  <path id="ID0.433894163928926" fill="none" stroke="#FFFFCC" stroke-width="2" stroke-linecap="round" d="M 240.500 183.250 C 240.500 183.250 241.116 184.620 241.250 185.350 C 241.370 186.005 241.503 186.734 241.250 187.350 C 240.968 188.037 240.371 188.593 239.750 189 C 239.399 189.230 238.500 189.150 238.500 189.150 " transform="matrix(1, 0, 0, 1, -217, -163)"/>
  <path id="ID0.19564657332375646" fill="none" stroke="#FFFFCC" stroke-width="2" stroke-linecap="round" d="M 239 182.150 C 239 182.150 238.395 183.754 237.750 184.250 C 237.212 184.664 236.426 184.584 235.750 184.650 C 234.390 184.784 233.016 184.807 231.650 184.850 C 230.884 184.874 230.115 184.879 229.350 184.850 C 229.159 184.843 229 184.750 229 184.750 " transform="matrix(1, 0, 0, 1, -217, -163)"/>
  <path id="ID0.21599287493154407" fill="none" stroke="#FFFFCC" stroke-width="2" stroke-linecap="round" d="M 244.350 178 C 244.350 178 246.749 176.689 248 176.150 C 248.687 175.854 249.412 175.624 250.150 175.500 C 251.005 175.356 251.886 175.274 252.750 175.350 C 253.801 175.442 255.850 176 255.850 176 " transform="matrix(1, 0, 0, 1, -217, -163)"/>
  <path id="ID0.09677937719970942" fill="none" stroke="#FFFFCC" stroke-width="2" stroke-linecap="round" d="M 243 180.500 C 243 180.500 244.543 181.767 245.350 182.350 C 246.043 182.850 246.853 183.192 247.500 183.750 C 248.081 184.251 248.554 184.875 249 185.500 C 249.390 186.046 249.586 186.722 250 187.250 C 250.378 187.732 251.350 188.500 251.350 188.500 " transform="matrix(1, 0, 0, 1, -217, -163)"/>
  <path id="ID0.36166043067350984" fill="none" stroke="#FFFFCC" stroke-width="2" stroke-linecap="round" d="M 244.750 183.750 C 244.750 183.750 246.110 185.286 246.650 186.150 C 247.034 186.764 247.140 187.523 247.500 188.150 C 247.601 188.326 248 188.500 248 188.500 " transform="matrix(1, 0, 0, 1, -217, -163)"/>
  <path id="ID0.22123068198561668" fill="none" stroke="#FF0000" stroke-width="2" stroke-linecap="round" d="M 237 180.750 C 236.050 180.650 235.100 180.450 234.200 180.550 C 233.750 180.550 232.950 181 232.950 181 C 233.650 180.500 235.793 180.206 236.850 180.350 C 237.665 180.461 238.427 180.857 239.150 181.250 C 240.152 181.795 241.132 182.409 242 183.150 C 242.514 183.589 242.928 184.155 243.250 184.750 C 243.603 185.403 243.625 186.209 244 186.850 C 244.436 187.595 245.650 188.850 245.650 188.850 " transform="matrix(1, 0, 0, 1, -217, -163)"/>
  <path id="ID0.42977175395935774" fill="none" stroke="#FFFFCC" stroke-width="2" stroke-linecap="round" d="M 240.350 178.350 C 240.350 178.350 241.500 176.150 241.850 175 C 242 174.350 241.950 173.600 241.750 173 C 241.400 172 240.250 170.250 240.250 170.250 C 241.150 178.750 239.500 178 238.650 177.850 C 237.950 177.700 237.300 177.700 236.650 177.850 C 235.100 178.150 233.550 178.550 232.150 179.250 C 231.550 179.500 230.850 180.650 230.850 180.650 C 239.250 178.150 237.173 179.774 236 180.350 C 235.311 180.688 234.518 180.850 233.750 180.850 C 232.901 180.850 232.013 180.722 231.250 180.350 C 230.594 180.030 230.322 179.137 229.650 178.850 C 228.991 178.569 228.217 178.750 227.500 178.750 C 226.916 178.750 225.750 178.850 225.750 178.850 " transform="matrix(1, 0, 0, 1, -217, -163)"/>
  <path id="ID0.3050047433935106" fill="none" stroke="#FF0000" stroke-width="2" stroke-linecap="round" d="M 237.650 180.500 C 237.650 180.500 237 178.800 236.500 178.150 C 236 177.550 235.400 177.150 234.750 176.850 C 234 176.450 233.050 176.500 232.350 176.150 C 231.700 175.800 231.100 175.350 230.650 174.850 C 230.350 174.550 230.250 173.750 230.250 173.750 C 240.350 181.350 239.299 179.771 238.750 179 C 238.350 178.439 237.887 177.920 237.500 177.350 C 236.721 176.204 236.056 174.977 235.250 173.850 C 234.838 173.274 234.537 172.422 233.850 172.250 C 233.160 172.077 232.481 172.673 231.850 173 C 231.568 173.146 231.150 173.650 231.150 173.650 " transform="matrix(1, 0, 0, 1, -217, -163)"/>
</svg>